<svg width="25" height="25" viewBox="0 0 25 25" fill="none" xmlns="http://www.w3.org/2000/svg">
<path d="M16.517 2.20361H8.447C6.87015 2.20547 5.35844 2.83276 4.24353 3.94785C3.12862 5.06294 2.50159 6.57477 2.5 8.15161L2.5 16.2216C2.50185 17.7985 3.12914 19.3102 4.24424 20.4251C5.35933 21.54 6.87115 22.167 8.448 22.1686H16.518C18.0948 22.1668 19.6066 21.5395 20.7215 20.4244C21.8364 19.3093 22.4634 17.7975 22.465 16.2206V8.15061C22.4631 6.57377 21.8359 5.06205 20.7208 3.94714C19.6057 2.83224 18.0938 2.2052 16.517 2.20361V2.20361ZM20.457 16.2206C20.457 16.738 20.3551 17.2504 20.1571 17.7284C19.9591 18.2064 19.6689 18.6408 19.303 19.0066C18.9371 19.3725 18.5028 19.6627 18.0248 19.8607C17.5467 20.0587 17.0344 20.1606 16.517 20.1606H8.447C7.40222 20.1603 6.40032 19.7451 5.66165 19.0063C4.92297 18.2674 4.508 17.2654 4.508 16.2206V8.15061C4.50827 7.10583 4.92349 6.10394 5.66235 5.36526C6.40122 4.62658 7.40322 4.21161 8.448 4.21161H16.518C17.5628 4.21188 18.5647 4.6271 19.3034 5.36597C20.042 6.10483 20.457 7.10683 20.457 8.15161V16.2216V16.2206Z" fill="#E2E8F0"/>
<path d="M12.4821 7.02246C11.1135 7.02458 9.8016 7.56925 8.83397 8.53707C7.86633 9.50489 7.32192 10.8169 7.32007 12.1855C7.32166 13.5544 7.86609 14.8668 8.83397 15.8349C9.80185 16.8029 11.1142 17.3476 12.4831 17.3495C13.8522 17.3479 15.1647 16.8033 16.1328 15.8352C17.1009 14.8671 17.6455 13.5546 17.6471 12.1855C17.645 10.8165 17.1 9.50435 16.1318 8.53665C15.1635 7.56896 13.851 7.02478 12.4821 7.02346V7.02246ZM12.4821 15.3415C11.6453 15.3415 10.8428 15.0091 10.2511 14.4174C9.65947 13.8257 9.32707 13.0232 9.32707 12.1865C9.32707 11.3497 9.65947 10.5472 10.2511 9.95554C10.8428 9.36386 11.6453 9.03146 12.4821 9.03146C13.3188 9.03146 14.1213 9.36386 14.713 9.95554C15.3047 10.5472 15.6371 11.3497 15.6371 12.1865C15.6371 13.0232 15.3047 13.8257 14.713 14.4174C14.1213 15.0091 13.3188 15.3415 12.4821 15.3415V15.3415Z" fill="#E2E8F0"/>
<path d="M17.6559 8.29871C18.3391 8.29871 18.8929 7.74488 18.8929 7.06171C18.8929 6.37853 18.3391 5.82471 17.6559 5.82471C16.9728 5.82471 16.4189 6.37853 16.4189 7.06171C16.4189 7.74488 16.9728 8.29871 17.6559 8.29871Z" fill="#E2E8F0"/>
</svg>
