<svg width="25" height="25" viewBox="0 0 25 25" fill="none" xmlns="http://www.w3.org/2000/svg">
<path d="M22.459 13.9225V21.3015H18.181V14.4165C18.181 12.6865 17.562 11.5065 16.014 11.5065C14.832 11.5065 14.128 12.3025 13.819 13.0715C13.706 13.3465 13.677 13.7295 13.677 14.1145V21.3015H9.397C9.397 21.3015 9.455 9.64149 9.397 8.43249H13.677V10.2565L13.649 10.2985H13.677V10.2565C14.245 9.38149 15.26 8.13049 17.533 8.13049C20.348 8.13049 22.459 9.97049 22.459 13.9225V13.9225ZM4.921 2.22949C3.458 2.22949 2.5 3.18949 2.5 4.45249C2.5 5.68749 3.43 6.67649 4.865 6.67649H4.893C6.386 6.67649 7.313 5.68749 7.313 4.45249C7.287 3.18949 6.387 2.22949 4.922 2.22949H4.921ZM2.754 21.3015H7.032V8.43249H2.754V21.3015Z" fill="#E2E8F0"/>
</svg>
