<svg width="25" height="25" viewBox="0 0 25 25" fill="none" xmlns="http://www.w3.org/2000/svg">
<path d="M22.5 6.11078C21.7504 6.43815 20.9565 6.65281 20.144 6.74778C20.9968 6.24701 21.638 5.45288 21.948 4.51378C21.14 4.98411 20.2587 5.31538 19.341 5.49378C18.9545 5.08898 18.4897 4.76716 17.9748 4.54796C17.4598 4.32875 16.9056 4.21674 16.346 4.21878C14.08 4.21878 12.243 6.02878 12.243 8.25878C12.243 8.57478 12.279 8.88378 12.349 9.17878C10.7236 9.10147 9.13212 8.68619 7.67617 7.95942C6.22022 7.23265 4.93176 6.21036 3.893 4.95778C3.52883 5.57218 3.33742 6.27356 3.339 6.98778C3.3397 7.65574 3.50683 8.31301 3.82529 8.90017C4.14375 9.48733 4.6035 9.98589 5.163 10.3508C4.51248 10.3298 3.87602 10.1561 3.305 9.84378V9.89378C3.305 11.8518 4.72 13.4848 6.595 13.8568C6.24261 13.9503 5.87958 13.9977 5.515 13.9978C5.25 13.9978 4.993 13.9728 4.742 13.9228C5.01008 14.7307 5.52311 15.4351 6.20982 15.9381C6.89653 16.4411 7.72284 16.7178 8.574 16.7298C7.11407 17.8543 5.32182 18.4618 3.479 18.4568C3.147 18.4568 2.821 18.4368 2.5 18.4008C4.38125 19.5915 6.56259 20.2221 8.789 20.2188C16.336 20.2188 20.462 14.0618 20.462 8.72278L20.448 8.19978C21.2529 7.63345 21.9481 6.92562 22.5 6.11078V6.11078Z" fill="#E2E8F0"/>
</svg>
