<svg width="25" height="25" viewBox="0 0 25 25" fill="none" xmlns="http://www.w3.org/2000/svg">
<path d="M18.312 5.22073H6.645C4.355 5.22073 2.5 7.05573 2.5 9.31973V15.0877C2.5 17.3517 4.356 19.1877 6.645 19.1877H18.312C20.602 19.1877 22.457 17.3517 22.457 15.0877V9.31973C22.457 7.05573 20.601 5.21973 18.312 5.21973V5.22073ZM15.509 12.4837L10.052 15.0587C10.0187 15.0748 9.98192 15.0821 9.94503 15.0801C9.90815 15.0781 9.87237 15.0667 9.84103 15.0472C9.8097 15.0276 9.78382 15.0005 9.7658 14.9682C9.74779 14.936 9.73822 14.8997 9.738 14.8627V9.55373C9.73867 9.5166 9.74872 9.48025 9.76722 9.44805C9.78573 9.41586 9.81208 9.38887 9.84382 9.3696C9.87556 9.35034 9.91167 9.33942 9.94877 9.33787C9.98587 9.33632 10.0228 9.34418 10.056 9.36073L15.514 12.0957C15.5504 12.1139 15.5809 12.1419 15.602 12.1766C15.6232 12.2112 15.6341 12.2512 15.6336 12.2918C15.6331 12.3324 15.6211 12.3721 15.5991 12.4062C15.577 12.4403 15.5458 12.4675 15.509 12.4847V12.4837Z" fill="#E2E8F0"/>
</svg>
